<?xml version="1.0" standalone="no"?>
<!DOCTYPE svg PUBLIC "-//W3C//DTD SVG 20010904//EN"
 "http://www.w3.org/TR/2001/REC-SVG-20010904/DTD/svg10.dtd">
<svg version="1.0" xmlns="http://www.w3.org/2000/svg"
 width="512.000000pt" height="512.000000pt" viewBox="0 0 512.000000 512.000000"
 preserveAspectRatio="xMidYMid meet">

<g transform="translate(0.000000,512.000000) scale(0.100000,-0.100000)"
fill="#000000" stroke="none">
<path d="M593 5104 c-60 -22 -126 -84 -154 -146 -21 -49 -23 -69 -27 -260 l-4
-206 -106 -4 c-120 -4 -157 -16 -216 -74 -20 -19 -46 -54 -59 -77 l-22 -42 -3
-1158 -2 -1158 24 -24 c32 -32 70 -32 101 0 l25 24 0 1131 c0 1233 -3 1162 56
1209 l27 21 1929 0 c1759 0 1932 -1 1957 -16 60 -35 56 113 61 -2009 l5 -1950
22 -58 c12 -32 38 -80 57 -108 l36 -49 -1957 2 -1958 3 -46 21 c-64 30 -125
88 -157 148 l-27 51 -5 658 -5 659 -24 19 c-32 26 -67 24 -96 -6 l-25 -24 0
-638 c0 -542 2 -648 15 -698 42 -160 172 -286 342 -330 87 -23 4319 -23 4406
0 124 32 245 123 300 223 61 112 57 -44 57 2409 0 2214 0 2243 -20 2295 -21
58 -81 123 -140 154 -33 18 -76 19 -778 22 l-742 2 -25 -24 c-32 -32 -32 -70
0 -101 l24 -25 582 0 c550 0 581 -1 573 -17 -5 -10 -10 -428 -12 -930 l-2
-912 22 -20 c27 -26 69 -27 99 -2 l24 19 5 897 5 897 32 29 c18 16 44 31 58
35 35 9 94 -15 119 -49 l21 -28 0 -2252 0 -2252 -28 -57 c-53 -109 -159 -172
-288 -173 -68 0 -84 4 -145 35 -73 38 -129 99 -154 168 -10 27 -15 126 -17
350 l-5 312 84 0 c50 0 103 6 130 16 61 20 123 75 156 138 l27 51 0 803 0 804
-24 19 c-30 25 -72 24 -99 -1 l-22 -21 0 -762 c0 -471 -4 -776 -10 -798 -5
-19 -24 -48 -41 -65 -28 -27 -37 -29 -115 -33 l-84 -3 0 1549 c0 1705 4 1597
-61 1676 -17 20 -52 49 -77 65 l-47 27 -1790 5 -1790 5 0 195 c0 177 2 198 20
224 39 59 -24 56 1320 56 l1236 0 24 25 c32 31 32 69 0 100 l-24 25 -1253 -1
c-1079 0 -1259 -3 -1295 -15z"/>
<path d="M349 4161 l-24 -19 0 -710 c0 -684 1 -711 19 -731 l19 -21 1803 0
1803 0 20 26 c21 26 21 34 21 726 l0 699 -25 24 -24 25 -1794 0 c-1752 0
-1795 0 -1818 -19z m3511 -731 l0 -600 -1695 0 -1695 0 0 600 0 600 1695 0
1695 0 0 -600z"/>
<path d="M663 3850 c-12 -5 -26 -18 -32 -29 -7 -13 -11 -149 -11 -396 l0 -376
25 -24 c29 -30 64 -32 96 -6 24 19 24 21 29 266 l5 246 173 -250 c95 -138 181
-255 192 -261 31 -16 67 -12 96 13 l27 23 -2 365 c-1 200 -5 374 -8 387 -5 22
-49 52 -76 52 -8 0 -25 -9 -38 -19 -24 -19 -24 -21 -29 -271 l-5 -251 -179
260 c-160 231 -203 283 -234 280 -4 0 -17 -4 -29 -9z"/>
<path d="M1475 3849 c-45 -26 -45 -24 -45 -421 l0 -379 25 -24 c24 -25 27 -25
200 -25 173 0 176 0 200 25 32 31 32 69 0 100 -23 24 -30 25 -150 25 l-125 0
0 100 0 100 105 0 c114 0 147 9 164 47 15 34 14 47 -9 76 -20 25 -25 26 -138
29 l-117 3 -3 103 -3 102 129 0 c121 0 130 1 150 23 27 29 28 67 3 98 -19 23
-24 24 -193 27 -114 1 -180 -2 -193 -9z"/>
<path d="M2093 3848 c-49 -24 -48 -38 30 -432 69 -346 76 -371 101 -393 34
-29 77 -29 111 0 21 18 40 66 96 242 38 121 69 226 69 233 0 46 26 -17 86
-215 76 -250 93 -283 154 -283 21 0 41 9 59 28 25 25 33 56 100 391 40 200 70
374 67 387 -13 52 -102 66 -131 20 -7 -11 -32 -115 -55 -231 -22 -115 -44
-218 -48 -229 -6 -13 -29 50 -80 215 -58 190 -77 238 -98 257 -30 26 -66 24
-96 -6 -9 -9 -49 -123 -88 -252 -40 -129 -74 -236 -75 -238 -1 -1 -24 106 -50
238 -43 215 -51 243 -73 260 -27 22 -46 24 -79 8z"/>
<path d="M3327 3846 c-160 -43 -231 -208 -147 -344 26 -42 60 -62 204 -119
132 -53 176 -85 176 -130 0 -51 -70 -103 -138 -103 -52 0 -127 29 -171 66 -54
46 -94 50 -128 10 -12 -15 -23 -36 -23 -47 0 -35 75 -104 152 -140 66 -30 82
-34 163 -34 71 0 100 5 136 21 101 47 159 130 159 226 -1 121 -68 192 -252
263 -133 53 -173 82 -162 118 26 86 137 97 262 25 48 -27 56 -29 83 -18 51 22
65 79 29 118 -32 34 -100 70 -165 86 -70 19 -113 19 -178 2z"/>
<path d="M344 2399 c-18 -20 -19 -51 -22 -853 -2 -832 -2 -833 19 -859 l20
-27 744 0 744 0 20 26 c21 27 21 32 21 854 0 822 0 827 -21 854 l-20 26 -743
0 c-743 0 -743 0 -762 -21z m1386 -859 l0 -730 -625 0 -625 0 0 730 0 730 625
0 625 0 0 -730z"/>
<path d="M2161 2394 c-23 -29 -24 -36 -15 -72 15 -53 -7 -52 929 -52 740 0
870 2 894 15 46 23 54 66 20 109 l-20 26 -894 0 -894 0 -20 -26z"/>
<path d="M2165 2075 c-14 -13 -25 -36 -25 -50 0 -14 11 -37 25 -50 l24 -25
886 0 886 0 24 25 c14 13 25 36 25 50 0 14 -11 37 -25 50 l-24 25 -886 0 -886
0 -24 -25z"/>
<path d="M2184 1768 c-22 -10 -44 -47 -44 -72 0 -7 9 -25 21 -40 l20 -26 894
0 894 0 20 26 c34 43 24 86 -26 112 -29 16 -1747 16 -1779 0z"/>
<path d="M2161 1424 c-12 -15 -21 -33 -21 -40 0 -26 23 -62 47 -73 17 -8 276
-11 889 -11 740 0 869 2 893 15 46 23 54 66 20 109 l-20 26 -894 0 -894 0 -20
-26z"/>
<path d="M2165 1105 c-14 -13 -25 -36 -25 -50 0 -14 11 -37 25 -50 l24 -25
886 0 886 0 24 25 c14 13 25 36 25 50 0 14 -11 37 -25 50 l-24 25 -886 0 -886
0 -24 -25z"/>
<path d="M2184 798 c-22 -10 -44 -47 -44 -72 0 -7 9 -25 21 -40 l20 -26 894 0
894 0 20 26 c34 43 26 86 -20 109 -24 13 -153 15 -896 14 -576 0 -875 -4 -889
-11z"/>
<path d="M341 454 c-28 -36 -26 -60 8 -95 l29 -29 1782 0 c1335 0 1787 3 1803
12 50 26 60 69 26 112 l-20 26 -1804 0 -1804 0 -20 -26z"/>
</g>
</svg>
